<?xml version="1.0" encoding="UTF-8"?>
<svg id="Capa_1" data-name="Capa 1" xmlns="http://www.w3.org/2000/svg" viewBox="0 0 44.89 29.02">
  <defs>
    <style>
      .cls-1 {
        fill: #fff;
      }
    </style>
  </defs>
  <path class="cls-1" d="M42.45,28.65H2.43c-1.12,0-2.03-.91-2.03-2.03V2.39C.4,1.27,1.31.36,2.43.36h40.02c1.12,0,2.03.91,2.03,2.03v24.23c0,1.12-.91,2.03-2.03,2.03ZM2.43,2.36l-.03,24.26,40.05.03s.03-.02.03-.03V2.39l-40.05-.03Z"/>
  <path class="cls-1" d="M18.31,16.67v-5.73c0-.72.63-1.21,1.21-.96l6.48,2.86c.76.34.76,1.58,0,1.91l-6.48,2.86c-.58.26-1.21-.24-1.21-.96Z"/>
</svg>