<?xml version="1.0" encoding="UTF-8"?>
<svg id="Capa_1" data-name="Capa 1" xmlns="http://www.w3.org/2000/svg" viewBox="0 0 27.77 27.1">
  <defs>
    <style>
      .cls-1 {
        fill: #fff;
      }
    </style>
  </defs>
  <path class="cls-1" d="M26.76,25.02l-7.02-7.02c1.55-1.84,2.49-4.22,2.49-6.81C22.23,5.35,17.48.6,11.64.6S1.04,5.35,1.04,11.2s4.75,10.6,10.6,10.6c2.59,0,4.96-.94,6.81-2.49l7.02,7.02c.18.18.42.27.65.27s.47-.09.65-.27c.36-.36.36-.94,0-1.3ZM17.75,17.31c-1.64,1.64-3.81,2.54-6.11,2.54s-4.48-.9-6.12-2.53c-1.63-1.63-2.53-3.81-2.53-6.12s.9-4.48,2.54-6.11c1.64-1.64,3.81-2.54,6.11-2.54,4.77,0,8.65,3.88,8.65,8.65,0,2.31-.9,4.48-2.54,6.11Z"/>
</svg>