<?xml version="1.0" encoding="UTF-8"?>
<svg id="Capa_1" data-name="Capa 1" xmlns="http://www.w3.org/2000/svg" viewBox="0 0 48.02 23.87">
  <defs>
    <style>
      .cls-1, .cls-2 {
        fill: #fff;
      }

      .cls-2 {
        fill-rule: evenodd;
      }
    </style>
  </defs>
  <path class="cls-1" d="M38.57,2.58c0-.61.43-1.18,1.12-1.18s1.12.61,1.12,1.19-.41,1.18-1.11,1.18-1.13-.55-1.13-1.18h0ZM37.51,2.63c0,1.11.89,2.11,2.16,2.11s2.18-.97,2.18-2.15-.92-2.15-2.17-2.15c-1.15,0-2.17.86-2.17,2.18h0Z"/>
  <path class="cls-1" d="M31.74,5.58c0-1.02.52-2.13,1.81-2.13,1.6,0,1.85,1.46,1.85,2.11v3.69c0,.89-.53,2.11-1.83,2.11s-1.83-1.06-1.83-2.11v-3.68ZM29.41,9.19c0,3.16,2.58,4.22,4.21,4.22s4.11-1.06,4.11-4.22v-3.57c0-3.13-2.52-4.22-4.15-4.22-1.44,0-4.18.91-4.18,4.26v3.54Z"/>
  <path class="cls-1" d="M21.79,9.07c0-1.23.96-1.99,1.96-1.99,1.14,0,1.99.88,1.99,2.01s-.88,1.99-2.01,1.99c-1.03,0-1.94-.79-1.94-1.99v-.02ZM23.52,1.61l-2.95,4.31c-.53.82-1.02,1.78-1.02,2.96,0,.85.26,1.94.94,2.72.71.93,1.93,1.46,3.31,1.46,2.31,0,4.19-1.75,4.19-4.18s-1.85-3.8-3.57-3.8c-.35,0-.77.11-.9.17.17-.24.33-.46.49-.68l2.11-2.96h-2.61Z"/>
  <path class="cls-1" d="M13.41,4.64c.03-.5.26-1.26,1.2-1.26.72,0,1.11.6,1.11,1.28,0,.95-.9,1.38-1.67,1.38h-.5v1.67h.9c.87,0,1.91.5,1.91,1.6,0,.93-.57,1.69-1.66,1.69-1.1-.02-1.64-.83-1.7-1.53h-2.26c.03.51.15,1.34.65,2.02.69,1.01,2.05,1.49,3.27,1.49,2.18,0,3.94-1.5,3.94-3.49,0-.5-.11-2.11-2.14-2.8.57-.32,1.49-.96,1.49-2.33,0-1.61-1.31-2.93-3.27-2.93-1.44,0-3.45.81-3.51,3.24h2.21Z"/>
  <path class="cls-2" d="M31.37,20.2c9.48-.99,16.33-3.81,16.33-7.15,0-2.34-3.36-4.42-8.62-5.8v.93c3.67,1.06,5.92,2.51,5.92,4.11,0,2.53-5.67,4.69-13.63,5.53v2.39ZM23.97,20.58c.39,0,.78,0,1.16,0v3.17l4.53-4.36-4.53-4.36v3.17c-.39,0-.77,0-1.16,0-11.62,0-21.03-2.64-21.03-5.9,0-1.6,2.26-3.04,5.92-4.11v-.93C3.59,8.63.23,10.72.23,13.05c0,4.16,10.63,7.52,23.73,7.52Z"/>
</svg>