<?xml version="1.0" encoding="UTF-8"?>
<svg id="Capa_1" data-name="Capa 1" xmlns="http://www.w3.org/2000/svg" viewBox="0 0 49.21 34.89">
  <defs>
    <style>
      .cls-1 {
        fill: #fff;
      }
    </style>
  </defs>
  <path class="cls-1" d="M46.06,2.57c-8.72-4.18-17.42-.84-20.76.79-.51.25-1.1.25-1.61,0-3.34-1.63-12.04-4.97-20.75-.79-1.33.64-2.19,2.01-2.19,3.5v22.45c0,1.26.58,2.4,1.6,3.13,1.02.73,2.34.93,3.53.53,7.27-2.45,14.26.33,16.93,1.63.53.26,1.11.39,1.68.39s1.15-.13,1.68-.39c2.67-1.3,9.66-4.08,16.93-1.63,1.2.4,2.52.21,3.53-.53,1.02-.73,1.6-1.87,1.6-3.13V6.06c0-1.49-.86-2.86-2.19-3.5ZM11.98,29.2c-2.14,0-4.42.3-6.72,1.08-.6.2-1.22.11-1.73-.25-.49-.35-.77-.9-.77-1.5V6.06c0-.72.41-1.39,1.05-1.69,7.93-3.8,15.94-.72,19.01.79.22.11.45.18.68.24v26.51c-2.12-1.02-6.43-2.71-11.53-2.71ZM46.25,28.52c0,.6-.28,1.15-.77,1.5-.5.36-1.13.45-1.73.25h0c-7.8-2.62-15.23.19-18.25,1.64V5.4c.23-.06.46-.14.68-.24,3.08-1.5,11.08-4.58,19.01-.79.64.31,1.05.97,1.05,1.69v22.45Z"/>
</svg>