<?xml version="1.0" encoding="UTF-8"?>
<svg id="Capa_1" data-name="Capa 1" xmlns="http://www.w3.org/2000/svg" viewBox="0 0 118.98 116.94">
  <defs>
    <style>
      .cls-1 {
        fill: #fff;
      }

      .cls-2 {
        fill: none;
        stroke: #fff;
        stroke-miterlimit: 10;
      }
    </style>
  </defs>
  <path class="cls-2" d="M81.43,5.96c-6.71-2.78-14.08-4.31-21.81-4.31s-15.1,1.53-21.81,4.31c-6.96,2.88-13.24,7.12-18.51,12.39-5.26,5.26-9.5,11.54-12.38,18.51-2.78,6.71-4.32,14.07-4.32,21.81s1.53,15.09,4.32,21.81c2.88,6.96,7.12,13.24,12.38,18.51,5.26,5.26,11.54,9.5,18.51,12.38,6.71,2.78,14.08,4.31,21.81,4.31s15.1-1.53,21.81-4.31c6.96-2.88,13.24-7.12,18.51-12.38,5.26-5.27,9.5-11.54,12.39-18.51,2.78-6.71,4.31-14.08,4.31-21.81s-1.53-15.1-4.31-21.81c-2.89-6.97-7.12-13.24-12.39-18.51-5.26-5.26-11.54-9.5-18.51-12.39h0Z"/>
  <path class="cls-1" d="M66.31,49.17l-17.54-10.13c-.5-.29-1.02-.42-1.53-.42-.54,0-1.07.16-1.55.43h0c-.46.27-.86.66-1.14,1.13-.26.44-.41.96-.41,1.53v18.95c0,2.63,0-5.26,0,18.94h0c0,.57.15,1.09.41,1.53.28.48.67.86,1.14,1.13h0c.47.27,1.01.43,1.55.43.51,0,1.03-.13,1.53-.42,10.94-6.32,21.87-12.63,32.81-18.94.5-.3.88-.68,1.13-1.12.27-.48.41-1.02.41-1.56s-.13-1.08-.41-1.56c-.25-.43-.63-.82-1.13-1.12l-15.27-8.81Z"/>
</svg>