<?xml version="1.0" encoding="UTF-8"?>
<svg id="uuid-bc9e65de-c067-4331-b06c-f05380de1761" data-name="Capa 2" xmlns="http://www.w3.org/2000/svg" viewBox="0 0 43.01 24.97">
  <g id="uuid-e7b02ee9-1e87-4acc-9cd0-2f61be077905" data-name="Capa 1">
    <g>
      <path d="M34.73,1.94c0-.55.39-1.07,1.02-1.07s1.01.55,1.01,1.08-.37,1.07-1.01,1.07-1.02-.5-1.02-1.07h0ZM33.78,1.98c0,1,.81,1.91,1.96,1.91s1.98-.88,1.98-1.95-.84-1.94-1.97-1.94c-1.04,0-1.97.77-1.97,1.98h0Z" style="fill: #fff;"/>
      <path d="M28,4.54c0-.89.45-1.87,1.6-1.87,1.4,0,1.62,1.28,1.62,1.86v3.25c0,.78-.47,1.86-1.61,1.86s-1.61-.94-1.61-1.86v-3.23ZM25.95,7.72c0,2.78,2.27,3.72,3.7,3.72s3.62-.94,3.62-3.72v-3.14c0-2.75-2.22-3.72-3.65-3.72-1.27,0-3.68.8-3.68,3.74v3.11Z" style="fill: #fff;"/>
      <path d="M19.54,7.82c0-1.11.87-1.8,1.78-1.8,1.03,0,1.8.8,1.8,1.82s-.8,1.8-1.82,1.8c-.94,0-1.76-.72-1.76-1.8h0ZM21.11,1.06l-2.67,3.91c-.48.74-.92,1.61-.92,2.68,0,.77.23,1.76.85,2.46.65.84,1.75,1.32,3,1.32,2.09,0,3.8-1.58,3.8-3.79s-1.68-3.44-3.23-3.44c-.32,0-.7.1-.81.15.15-.22.3-.41.44-.62l1.91-2.68h-2.37Z" style="fill: #fff;"/>
      <path d="M11.96,3.83c.03-.45.23-1.16,1.1-1.16.66,0,1.02.55,1.02,1.17,0,.87-.83,1.27-1.53,1.27h-.45v1.53h.83c.8,0,1.75.45,1.75,1.46,0,.85-.52,1.54-1.51,1.54-1-.01-1.5-.76-1.56-1.4h-2.06c.03.47.14,1.23.59,1.84.63.92,1.87,1.36,2.99,1.36,2,0,3.61-1.38,3.61-3.19,0-.45-.1-1.93-1.95-2.56.52-.29,1.36-.88,1.36-2.13,0-1.47-1.2-2.68-2.99-2.68-1.32,0-3.15.74-3.21,2.96h2.02Z" style="fill: #fff;"/>
      <path d="M28.21,21.77c8.59-.89,14.8-3.46,14.8-6.48,0-2.12-3.04-4.01-7.81-5.26v.84c3.32.96,5.37,2.27,5.37,3.72,0,2.29-5.13,4.25-12.35,5.01v2.16ZM21.5,22.11c.35,0,.7,0,1.05,0v2.87l4.1-3.95-4.1-3.95v2.87c-.35,0-.7,0-1.05,0-10.52,0-19.06-2.39-19.06-5.35,0-1.45,2.05-2.76,5.37-3.72v-.84C3.04,11.28,0,13.17,0,15.29c0,3.77,9.63,6.82,21.5,6.82Z" style="fill: #fff; fill-rule: evenodd;"/>
    </g>
  </g>
</svg>