<?xml version="1.0" encoding="UTF-8"?>
<svg id="uuid-0edfcae7-e4ee-429f-8f47-eb59c97855cb" data-name="Capa 2" xmlns="http://www.w3.org/2000/svg" viewBox="0 0 33.92 25.45">
  <g id="uuid-939179ee-a59d-41e0-8e91-3e243fc91d0c" data-name="Capa 1">
    <path d="M32.35,1.53c-6.23-3.16-12.44-.63-14.82.6-.36.19-.78.19-1.15,0C14,.89,7.79-1.63,1.56,1.53c-.95.48-1.56,1.52-1.56,2.64v16.99c0,.95.42,1.81,1.14,2.37.73.55,1.67.7,2.52.4,5.19-1.85,10.18.25,12.09,1.23.38.2.79.3,1.2.3s.82-.1,1.2-.3c1.91-.99,6.9-3.08,12.09-1.23.85.3,1.8.16,2.52-.4.73-.55,1.14-1.42,1.14-2.37V4.17c0-1.12-.61-2.16-1.56-2.64ZM8.01,21.67c-1.53,0-3.15.23-4.8.81-.43.15-.87.08-1.23-.19-.35-.27-.55-.68-.55-1.14V4.17c0-.55.29-1.05.75-1.28C7.84.02,13.56,2.35,15.76,3.49c.16.08.32.14.49.18v20.06c-1.52-.77-4.59-2.05-8.23-2.05ZM32.49,21.16c0,.46-.2.87-.55,1.14-.36.27-.81.34-1.23.19h0c-5.57-1.98-10.88.15-13.03,1.24V3.67c.17-.05.33-.1.49-.18,2.2-1.14,7.91-3.47,13.58-.59.46.23.75.73.75,1.28v16.99Z" style="fill: #fff;"/>
  </g>
</svg>