<?xml version="1.0" encoding="UTF-8"?>
<svg id="uuid-d59e9704-7ac8-4edd-a7e1-88aafea76821" data-name="Capa 2" xmlns="http://www.w3.org/2000/svg" viewBox="0 0 35.17 32.8">
  <g id="uuid-b0914b98-7c01-4fac-a822-4ba76f295353" data-name="Capa 1">
    <g>
      <path d="M3.94,32.8c-.55,0-1-.45-1-1v-13.54l14.07-11.38c.43-.35,1.06-.28,1.41.15.35.43.28,1.06-.15,1.41l-13.33,10.77v12.58c0,.55-.45,1-1,1Z" style="fill: #fff;"/>
      <path d="M31.17,32.8c-.55,0-1-.45-1-1v-13.06c0-.55.45-1,1-1s1,.45,1,1v13.06c0,.55-.45,1-1,1Z" style="fill: #fff;"/>
      <path d="M1,16.17c-.29,0-.58-.12-.77-.37-.35-.43-.29-1.06.14-1.41L17.89,0l6.27,5.47v-1.74h6.38v7.01l4.29,3.67c.42.36.47.99.11,1.41-.36.42-.99.47-1.41.11l-4.99-4.27v-5.93h-2.38v4.14l-8.31-7.24L1.64,15.94c-.19.15-.41.23-.63.23Z" style="fill: #fff;"/>
    </g>
  </g>
</svg>