<?xml version="1.0" encoding="UTF-8"?>
<svg id="uuid-407ed291-929b-449d-ad80-5925f1225893" data-name="Capa 2" xmlns="http://www.w3.org/2000/svg" viewBox="0 0 28.22 35.16">
  <g id="uuid-c8358bd7-53ac-4bcd-b47b-cf69d454d124" data-name="Capa 1">
    <g>
      <path d="M19.31,9.88c-.55,0-1-.45-1-1V1.78c0-.55.45-1,1-1s1,.45,1,1v7.11c0,.55-.45,1-1,1Z" style="fill: #fff;"/>
      <path d="M19.31,9.95c-.55,0-1-.45-1-1,0-.55.45-1,1-1h7.29s0,0,0,0c.55,0,1,.45,1,1,0,.55-.45,1-1,1h-7.29s0,0,0,0Z" style="fill: #fff;"/>
      <path d="M8.08,14.24c-.55,0-1-.45-1-1,0-.55.45-1,1-1h12.07s0,0,0,0c.55,0,1,.45,1,1,0,.55-.45,1-1,1h-12.07s0,0,0,0Z" style="fill: #fff;"/>
      <path d="M8.08,26.9c-.55,0-1-.45-1-1,0-.55.45-1,1-1h12.07s0,0,0,0c.55,0,1,.45,1,1,0,.55-.45,1-1,1h-12.07s0,0,0,0Z" style="fill: #fff;"/>
      <path d="M8.08,20.57c-.55,0-1-.45-1-1,0-.55.45-1,1-1h6.03s0,0,0,0c.55,0,1,.45,1,1,0,.55-.45,1-1,1h-6.03s0,0,0,0Z" style="fill: #fff;"/>
      <path d="M26.06,35.16H2.17c-1.19,0-2.17-.97-2.17-2.17V2.17C0,.97.97,0,2.17,0h16.69c.53,0,1.05.2,1.44.55l3.36,3.01,3.82,3.34c.47.41.74,1.01.74,1.63v24.46c0,1.19-.97,2.17-2.17,2.17ZM2.17,2c-.09,0-.17.07-.17.17v30.82c0,.09.07.17.17.17h23.89c.09,0,.17-.07.17-.17V8.53s-.02-.09-.06-.13l-7.19-6.36s-.07-.04-.11-.04H2.17Z" style="fill: #fff;"/>
    </g>
  </g>
</svg>