<?xml version="1.0" encoding="UTF-8"?>
<svg id="uuid-372d8890-b4df-4446-b052-e913eb925b53" data-name="Capa 2" xmlns="http://www.w3.org/2000/svg" viewBox="0 0 26.32 32.98">
  <g id="uuid-44812acb-78b4-406d-befd-81feb560d8e7" data-name="Capa 1">
    <path d="M26.14,31.34l-6.32-9.55c2.18-1.73,3.78-4.19,4.38-7.12C25.55,8.06,21.27,1.59,14.66.25,8.06-1.1,1.59,3.18.25,9.79s2.93,13.07,9.54,14.42c2.93.6,5.83.08,8.27-1.24l6.32,9.55c.16.24.41.4.67.45s.55,0,.8-.15c.49-.32.62-.98.3-1.47ZM17.73,20.54c-2.23,1.47-4.89,1.99-7.49,1.46-2.61-.53-4.86-2.05-6.33-4.27-1.47-2.22-1.99-4.89-1.46-7.5s2.05-4.85,4.27-6.33c2.23-1.47,4.89-1.99,7.49-1.46,5.39,1.1,8.88,6.38,7.79,11.77-.53,2.61-2.05,4.85-4.27,6.33Z" style="fill: #fff;"/>
  </g>
</svg>